<svg xmlns="http://www.w3.org/2000/svg" width="33.585" height="33.586" viewBox="0 0 33.585 33.586">
    <path d="M16.793 33.586A16.793 16.793 0 1 0-.002 16.793a16.812 16.812 0 0 0 16.795 16.793zm0-31.287A14.494 14.494 0 1 1 2.298 16.793 14.511 14.511 0 0 1 16.793 2.3z" data-name="Path 469"/>
    <path d="M14.537 23.985a1.15 1.15 0 1 0 1.625-1.626l-4.416-4.416h12.79a1.15 1.15 0 0 0 0-2.3H11.745l4.418-4.418a1.15 1.15 0 0 0-1.626-1.626l-6.38 6.38a1.149 1.149 0 0 0 0 1.626z" data-name="Path 470"/>
</svg>
