<svg xmlns="http://www.w3.org/2000/svg" id="plus_1_" width="19.754" height="19.754" data-name="plus (1)" viewBox="0 0 19.754 19.754">
    <defs>
        <style>
            .cls-1{fill:#2196f3}.cls-2{fill:#fafafa}
        </style>
    </defs>
    <path id="Path_474" d="M9.877 0a9.877 9.877 0 1 0 9.877 9.877A9.888 9.888 0 0 0 9.877 0zm0 0" class="cls-1" data-name="Path 474"/>
    <path id="Path_475" d="M132.133 128.635h-3.5v3.5a.823.823 0 0 1-1.646 0v-3.5h-3.5a.823.823 0 0 1 0-1.646h3.5v-3.5a.823.823 0 1 1 1.646 0v3.5h3.5a.823.823 0 0 1 0 1.646zm0 0" class="cls-2" data-name="Path 475" transform="translate(-117.935 -117.935)"/>
</svg>
