<svg xmlns="http://www.w3.org/2000/svg" width="24.175" height="24.469" viewBox="0 0 24.175 24.469">
    <defs>
        <style>
            .cls-1{fill:#4a4a4a}
        </style>
    </defs>
    <path id="home_1_" d="M41.5 12.135a.644.644 0 0 0-.685.592v10.556h-7.35v-6.626a.644.644 0 0 0-.685-.592h-5.365a.644.644 0 0 0-.685.592v5.254a.692.692 0 0 0 1.37 0V17.25h4v6.034H19.38V8.781l10.72-7.43 10.971 7.608a.76.76 0 0 0 .963-.092.54.54 0 0 0-.106-.833L30.526.13a.77.77 0 0 0-.857 0l-11.4 7.9a.566.566 0 0 0-.257.462v15.384a.644.644 0 0 0 .685.592H41.5a.644.644 0 0 0 .685-.592V12.728a.644.644 0 0 0-.685-.593z" class="cls-1" data-name="home (1)" transform="translate(-18.01 .001)"/>
</svg>
