<svg xmlns="http://www.w3.org/2000/svg" width="26.512" height="19.552" viewBox="0 0 26.512 19.552">
    <defs>
        <style>
            .cls-1{fill:#4a4a4a}
        </style>
    </defs>
    <g id="identification" transform="translate(0 5.25)">
        <path id="Path_463" d="M117.481 87.461a2.856 2.856 0 1 0-2.856-2.856 2.856 2.856 0 0 0 2.856 2.856zm0-4.6a1.751 1.751 0 1 1-1.751 1.751 1.751 1.751 0 0 1 1.751-1.752zm0 0" class="cls-1" data-name="Path 463" transform="translate(-109.56 -83.156)"/>
        <path id="Path_464" d="M84.385 234.872a4.285 4.285 0 0 0-3.1 1.3A4.581 4.581 0 0 0 80 239.413a.554.554 0 0 0 .552.552h7.666a.554.554 0 0 0 .552-.552 4.581 4.581 0 0 0-1.281-3.242 4.285 4.285 0 0 0-3.104-1.299zm-3.242 3.988a3.379 3.379 0 0 1 .928-1.917 3.254 3.254 0 0 1 4.629 0 3.4 3.4 0 0 1 .928 1.917zm0 0" class="cls-1" data-name="Path 464" transform="translate(-76.465 -229.512)"/>
        <path id="Path_465" d="M23.75-5.25H2.762A2.763 2.763 0 0 0 0-2.488v14.029A2.763 2.763 0 0 0 2.762 14.3H23.75a2.763 2.763 0 0 0 2.762-2.762V-2.488A2.763 2.763 0 0 0 23.75-5.25zm1.657 16.791A1.662 1.662 0 0 1 23.75 13.2H2.762A1.662 1.662 0 0 1 1.1 11.541V-2.488a1.662 1.662 0 0 1 1.662-1.657H23.75a1.662 1.662 0 0 1 1.657 1.657zm0 0" class="cls-1" data-name="Path 465"/>
        <path id="Path_466" d="M355.612 203.5h-6.435a.552.552 0 1 0 0 1.1h6.435a.552.552 0 1 0 0-1.1zm0 0" class="cls-1" data-name="Path 466" transform="translate(-333.221 -199.526)"/>
        <path id="Path_467" d="M355.612 283.5h-6.435a.552.552 0 1 0 0 1.1h6.435a.552.552 0 1 0 0-1.1zm0 0" class="cls-1" data-name="Path 467" transform="translate(-333.221 -275.991)"/>
        <path id="Path_468" d="M355.612 123.5h-6.435a.552.552 0 1 0 0 1.1h6.435a.552.552 0 1 0 0-1.1zm0 0" class="cls-1" data-name="Path 468" transform="translate(-333.221 -123.061)"/>
    </g>
</svg>
